<svg width="26" height="28" viewBox="0 0 26 28" fill="none" xmlns="http://www.w3.org/2000/svg">
<path d="M23.2262 12.8917L13.2703 23.6134C12.0507 24.9269 10.3964 25.6648 8.67158 25.6648C6.94672 25.6648 5.2925 24.9269 4.07283 23.6134C2.85317 22.2999 2.16797 20.5184 2.16797 18.6609C2.16797 16.8034 2.85317 15.0219 4.07283 13.7084L14.0287 2.98674C14.8418 2.11108 15.9446 1.61914 17.0945 1.61914C18.2444 1.61914 19.3472 2.11108 20.1603 2.98674C20.9734 3.86239 21.4302 5.05004 21.4302 6.2884C21.4302 7.52677 20.9734 8.71441 20.1603 9.59007L10.1937 20.3117C9.78711 20.7496 9.23571 20.9955 8.66075 20.9955C8.0858 20.9955 7.53439 20.7496 7.12783 20.3117C6.72128 19.8739 6.49288 19.2801 6.49288 18.6609C6.49288 18.0417 6.72128 17.4479 7.12783 17.0101L16.3253 7.11674" stroke="#F0F0F0" stroke-linecap="round" stroke-linejoin="round"/>
</svg>
