<svg width="36" height="36" viewBox="0 0 36 36" fill="none" xmlns="http://www.w3.org/2000/svg">
<path d="M18 11.5238L26.9474 5.85714M18 11.5238L9.05263 6.66667M18 11.5238V20.8333M18 30.1429L26.0526 35M18 30.1429V20.8333M18 30.1429L9.05263 35M26.0526 35L35 29.3333V21.2381M26.0526 35V26.0952M35 21.2381L26.9474 16.381M35 21.2381L26.0526 26.0952M26.9474 16.381V8.28571V5.85714M26.9474 16.381L18 20.8333M26.9474 5.85714L18 1L9.05263 6.66667M9.05263 6.66667V15.5714M9.05263 15.5714L18 20.8333M9.05263 15.5714L1 20.8333M18 20.8333L9.05263 26.0952M18 20.8333L26.0526 26.0952M1 20.8333L9.05263 26.0952M1 20.8333V29.3333L9.05263 35M9.05263 26.0952V35" stroke="#03F7AD" stroke-width="1.5"/>
</svg>
