<svg width="22" height="21" viewBox="0 0 22 21" fill="none" xmlns="http://www.w3.org/2000/svg">
<path d="M15.5827 18.375V16.625C15.5827 15.6967 15.1964 14.8065 14.5087 14.1501C13.8211 13.4937 12.8885 13.125 11.916 13.125H4.58268C3.61022 13.125 2.67759 13.4937 1.98996 14.1501C1.30232 14.8065 0.916016 15.6967 0.916016 16.625V18.375M21.0827 18.375V16.625C21.0821 15.8495 20.8117 15.0962 20.3139 14.4833C19.8162 13.8704 19.1193 13.4326 18.3327 13.2388M14.666 2.73875C15.4547 2.93151 16.1538 3.36936 16.653 3.98327C17.1522 4.59718 17.4232 5.35223 17.4232 6.12938C17.4232 6.90652 17.1522 7.66157 16.653 8.27548C16.1538 8.88939 15.4547 9.32724 14.666 9.52M11.916 6.125C11.916 8.058 10.2744 9.625 8.24935 9.625C6.22431 9.625 4.58268 8.058 4.58268 6.125C4.58268 4.192 6.22431 2.625 8.24935 2.625C10.2744 2.625 11.916 4.192 11.916 6.125Z" stroke="#F0F0F0" stroke-linecap="round" stroke-linejoin="round"/>
</svg>
