<svg width="31" height="28" viewBox="0 0 31 28" fill="none" xmlns="http://www.w3.org/2000/svg">
<path d="M11.9261 21.2724L11.8827 20.9677L11.5912 20.8691C11.3361 20.7829 11.0978 20.6801 10.8758 20.5613C10.6396 20.435 10.4086 20.2996 10.1826 20.1552L9.97325 20.0214L9.74014 20.1074L6.26982 21.389L3.20984 16.7436L6.12163 14.8056L6.3898 14.6271L6.33812 14.3091C6.32052 14.2008 6.3123 14.1 6.3123 14.0062V13.2399C6.3123 13.1461 6.32052 13.0453 6.33812 12.937L6.3898 12.619L6.12163 12.4405L3.20984 10.5025L6.26982 5.85711L9.74014 7.13866L9.97325 7.22474L10.1826 7.0909C10.4057 6.94834 10.6395 6.81429 10.8842 6.68883C11.1253 6.56521 11.3649 6.46002 11.603 6.37283L11.8839 6.26994L11.9261 5.97372L12.3816 2.77051H18.618L19.0735 5.97372L19.1169 6.27843L19.4084 6.37699C19.6635 6.46322 19.9018 6.56598 20.1238 6.68477C20.36 6.81112 20.591 6.94649 20.817 7.0909L21.0264 7.22474L21.2595 7.13866L24.7298 5.85711L27.7898 10.5025L24.878 12.4405L24.6098 12.619L24.6615 12.937C24.6791 13.0453 24.6873 13.1461 24.6873 13.2399V14.0062C24.6873 14.0703 24.6762 14.1457 24.6472 14.2348L24.53 14.5954L24.8457 14.8056L27.7575 16.7436L24.6981 21.388L21.2608 20.1079L21.0271 20.0209L20.817 20.1552C20.5939 20.2978 20.3601 20.4318 20.1154 20.5573C19.8743 20.6809 19.6347 20.7861 19.3966 20.8733L19.1157 20.9762L19.0735 21.2724L18.618 24.4756H12.3816L11.9261 21.2724ZM15.5644 18.0964C16.9262 18.0964 18.1114 17.6696 19.0913 16.8084C20.0733 15.9453 20.5852 14.8754 20.5852 13.623C20.5852 12.3707 20.0733 11.3008 19.0913 10.4377C18.1114 9.57648 16.9262 9.14966 15.5644 9.14966C14.1834 9.14966 12.9908 9.57507 12.019 10.4397C11.0481 11.3036 10.5436 12.373 10.5436 13.623C10.5436 14.8731 11.0481 15.9425 12.019 16.8063C12.9908 17.671 14.1834 18.0964 15.5644 18.0964Z" stroke="#F0F0F0"/>
</svg>
